<?xml version="1.0" encoding="UTF-8"?>
<svg xmlns="http://www.w3.org/2000/svg" xmlns:xlink="http://www.w3.org/1999/xlink" viewBox="0 0 144 144" width="144px" height="144px">
<g id="surface31300756">
<path style=" stroke:none;fill-rule:nonzero;fill:rgb(98.039216%,20.392157%,11.764706%);fill-opacity:1;" d="M 45.140625 43.085938 C 44.011719 43.085938 42.851562 43.152344 41.652344 43.296875 L 42.335938 45.449219 C 43.394531 45.335938 44.445312 45.296875 45.5 45.296875 L 45.871094 45.296875 Z M 59.027344 45.230469 L 58.886719 47.628906 C 60.089844 48.03125 61.25 48.472656 62.410156 48.945312 L 62.5625 46.503906 C 62.230469 46.324219 61.316406 45.886719 59.027344 45.230469 Z M 29.101562 46.609375 C 28.191406 47.082031 27.242188 47.585938 26.261719 48.171875 L 27.929688 50.722656 C 28.875 50.136719 29.789062 49.59375 30.734375 49.121094 Z M 45.605469 46.722656 C 44.585938 46.730469 43.554688 46.785156 42.519531 46.890625 C 31.902344 47.835938 18.855469 57.507812 11.25 70.199219 C 3.601562 82.933594 2.566406 93.734375 2.566406 93.734375 L 31.269531 93.734375 C 31.269531 93.734375 25.78125 68.671875 43.960938 58.5 C 47.742188 56.65625 59.496094 49.992188 78.574219 62.769531 L 80.007812 61.472656 C 74.605469 56.828125 60.90625 46.609375 45.605469 46.722656 Z M 58.957031 56.652344 L 58.816406 58.9375 C 60.019531 58.976562 61.210938 59.121094 62.410156 59.378906 L 62.5625 57.121094 C 61.328125 56.867188 60.121094 56.726562 58.957031 56.652344 Z M 50.449219 57.523438 C 49.210938 57.882812 48.160156 58.292969 47.25 58.695312 L 48.085938 61.199219 C 49.136719 60.691406 50.195312 60.253906 51.25 59.921875 Z M 14.40625 57.671875 C 13.460938 58.582031 12.554688 59.488281 11.714844 60.398438 L 14.511719 62.796875 C 15.277344 61.816406 16.117188 60.832031 16.988281 59.925781 Z M 40.445312 63.054688 C 39.609375 63.820312 38.839844 64.648438 38.1875 65.488281 L 39.9375 68.105469 C 40.554688 67.199219 41.28125 66.359375 42.082031 65.523438 Z M 45.675781 68.238281 L 45.675781 93.269531 L 51.765625 93.269531 L 51.765625 86.351562 L 52.539062 87.152344 L 58.253906 93.269531 L 67.5 93.269531 L 59.476562 85.175781 L 60.433594 85.085938 C 60.671875 85.0625 66.390625 84.457031 66.390625 76.773438 C 66.390625 69.074219 59.378906 68.265625 59.125 68.238281 Z M 76.992188 68.414062 C 72.265625 68.414062 70.671875 72.757812 70.671875 74.734375 L 70.671875 93.269531 L 76.867188 93.269531 L 76.867188 88.726562 L 84.425781 88.726562 L 84.425781 93.269531 L 90.394531 93.269531 L 90.394531 74.734375 C 90.394531 69.582031 85.722656 68.414062 84.085938 68.414062 Z M 94.535156 68.414062 L 94.535156 93.261719 L 101.019531 93.261719 L 101.019531 68.414062 Z M 104.933594 68.414062 L 104.933594 93.269531 L 121.324219 93.269531 L 121.324219 87.511719 L 111.390625 87.511719 L 111.390625 68.414062 Z M 130.640625 68.414062 C 127.976562 68.414062 124.285156 70.644531 124.285156 74.839844 L 124.285156 77.132812 C 124.285156 81.445312 128.082031 83.453125 130.640625 83.453125 L 133.867188 83.460938 C 134.375 83.449219 136.695312 83.453125 136.695312 83.453125 L 136.695312 87.546875 L 124.644531 87.582031 L 124.644531 93.261719 L 136.097656 93.261719 C 138.464844 93.261719 142.273438 91.542969 142.410156 86.949219 L 142.410156 84.402344 C 142.410156 80.449219 139.199219 78.089844 136.097656 78.089844 L 129.71875 78.089844 L 129.71875 74.136719 L 141.46875 74.136719 L 141.46875 68.414062 Z M 34.011719 73.195312 C 33.535156 74.546875 33.207031 75.894531 32.914062 77.203125 L 35.867188 79.53125 C 36.011719 78.113281 36.269531 76.691406 36.632812 75.269531 Z M 79.503906 73.660156 L 81.929688 73.660156 C 83.832031 73.660156 84.375 74.867188 84.390625 75.523438 L 84.390625 82.273438 L 76.832031 82.273438 L 76.832031 75.523438 C 76.832031 75.507812 76.867188 73.660156 79.503906 73.660156 Z M 51.777344 73.835938 L 57.980469 73.863281 C 58.054688 73.894531 59.835938 74.59375 59.835938 77.238281 C 59.835938 79.878906 58.03125 80.613281 57.789062 80.675781 L 51.777344 80.675781 Z M 1.820312 74.664062 C 1.128906 76.222656 0.363281 78.042969 0 79.023438 L 4.183594 80.550781 C 4.65625 79.3125 5.417969 77.527344 6.003906 76.183594 Z M 32.371094 86.441406 C 32.441406 88.367188 32.628906 89.929688 32.808594 91.019531 L 37.179688 92.585938 C 36.847656 91.167969 36.519531 89.566406 36.296875 87.855469 Z M 32.371094 86.441406 "/>
</g>
</svg>
